<svg xmlns="http://www.w3.org/2000/svg" xmlns:xlink="http://www.w3.org/1999/xlink" width="2000" zoomAndPan="magnify" viewBox="0 0 1500 1499.999933" height="2000" preserveAspectRatio="xMidYMid meet" version="1.0"><defs><g/><clipPath id="ea0a4427a6"><path d="M 547 521 L 871 521 L 871 935.523438 L 547 935.523438 Z M 547 521 " clip-rule="nonzero"/></clipPath><clipPath id="de7db773ba"><path d="M 640 335.523438 L 916 335.523438 L 916 914 L 640 914 Z M 640 335.523438 " clip-rule="nonzero"/></clipPath><clipPath id="e997810500"><rect x="0" width="763" y="0" height="133"/></clipPath><clipPath id="c08d1e1dd1"><rect x="0" width="463" y="0" height="73"/></clipPath></defs><rect x="-150" width="1800" fill="#ffffff" y="-149.999993" height="1799.99992" fill-opacity="1"/><rect x="-150" width="1800" fill="#ffffff" y="-149.999993" height="1799.99992" fill-opacity="1"/><g clip-path="url(#ea0a4427a6)"><path fill="#ffbd59" d="M 814.695312 890.285156 C 796.050781 899.5 778.582031 906.664062 765.84375 911.5 C 759.46875 913.914062 754.289062 915.75 750.722656 916.976562 C 750.476562 917.066406 750.238281 917.140625 750.003906 917.226562 C 734.160156 911.898438 681.371094 892.472656 638.1875 863.289062 C 615.277344 847.972656 595.03125 830.078125 582.441406 811.28125 C 569.75 792.441406 564.796875 773.019531 569.367188 754.15625 C 585.390625 687.304688 601.414062 620.460938 617.433594 553.613281 C 635.402344 554.894531 651.96875 555.828125 669.960938 556.585938 C 673.933594 550.296875 678.789062 546.316406 683.882812 543.636719 C 683.613281 540.152344 686.832031 527.554688 679.707031 525.535156 C 657.019531 524.628906 634.34375 523.296875 611.699219 521.519531 C 591.238281 598.585938 570.777344 675.65625 550.320312 752.726562 C 543.578125 777.941406 550.84375 802.28125 566.625 824.1875 C 590.082031 857.121094 633.371094 885.027344 672.40625 904.175781 C 711.304688 923.363281 744.992188 933.871094 745.210938 933.984375 C 746.804688 934.492188 748.402344 935 750 935.507812 C 751.597656 935 753.195312 934.492188 754.792969 933.984375 C 755.0625 933.882812 808.757812 917.027344 858.839844 887.3125 C 860.585938 876.5625 866.839844 867.328125 870.65625 857.070312 C 853.011719 869.824219 833.402344 881.136719 814.695312 890.285156 " fill-opacity="1" fill-rule="nonzero"/></g><path fill="#ffbd59" d="M 949.679688 752.726562 C 929.222656 675.65625 908.761719 598.585938 888.300781 521.519531 C 860.582031 523.699219 832.816406 525.199219 805.039062 526.066406 C 805.035156 537.050781 804.925781 546.628906 803.347656 557.53125 C 829.765625 556.777344 856.183594 555.488281 882.566406 553.613281 C 898.585938 620.460938 914.613281 687.304688 930.632812 754.15625 C 935.523438 774.265625 929.53125 795.058594 914.9375 815.027344 C 911.722656 819.507812 908.015625 823.910156 903.996094 828.230469 L 910.613281 849.558594 C 919.300781 841.511719 927.042969 833.027344 933.375 824.1875 C 949.160156 802.28125 956.417969 777.941406 949.679688 752.726562 " fill-opacity="1" fill-rule="nonzero"/><g clip-path="url(#de7db773ba)"><path fill="#000000" d="M 879.082031 716.5 C 877.617188 718.917969 874.855469 720.203125 872.738281 721.988281 C 872.710938 727.691406 877.976562 726.433594 880.207031 722.574219 C 881.929688 719.597656 883.71875 718.148438 883.632812 714.570312 L 883.484375 713.765625 C 882.425781 712.890625 881.699219 711.878906 880.523438 713.304688 C 879.816406 714.164062 879.664062 715.523438 879.082031 716.5 Z M 843.8125 716.679688 C 841.371094 722.9375 846.089844 729.9375 849.363281 734.917969 C 851.277344 737.828125 853.214844 740.820312 855.449219 743.503906 C 856.417969 744.679688 857.175781 745.78125 857.65625 743.957031 C 858.242188 741.789062 857.558594 739.429688 858.347656 737.222656 C 859.171875 734.914062 861.824219 724.707031 864.195312 724.753906 C 867.003906 724.804688 869.128906 735.433594 871.902344 734.445312 C 874.921875 733.367188 876.007812 729.855469 876.988281 727.125 C 874.53125 726.957031 872.035156 726.664062 870.554688 724.664062 C 869.09375 722.679688 866.085938 721.347656 866.375 718.636719 C 866.738281 715.398438 870.28125 707.90625 864.007812 708.050781 L 863.113281 707.84375 C 861.261719 709.222656 858.46875 709.058594 856.269531 708.921875 C 855.136719 708.855469 853.789062 708.34375 852.601562 708.382812 C 851.316406 708.433594 850.6875 709.308594 849.5625 709.6875 C 849.914062 712.097656 856.289062 712.355469 857.761719 714.6875 C 853.121094 712.878906 846.222656 710.476562 843.8125 716.679688 Z M 867.804688 688.164062 C 865.355469 685.835938 862.785156 687.632812 862.753906 690.539062 L 862.933594 690.714844 C 861.996094 694.675781 859.664062 700.738281 861.113281 704.792969 C 862.996094 710.050781 867.585938 699.789062 867.960938 697.886719 C 868.660156 697.789062 869.394531 697.914062 870.066406 698.042969 C 869.378906 695.855469 868.707031 693.691406 868.664062 691.382812 C 868.648438 690.101562 868.816406 689.125 867.804688 688.164062 Z M 872.222656 712.125 C 872.671875 712.160156 873.140625 712.140625 873.617188 712.078125 C 873.585938 712.128906 873.554688 712.175781 873.527344 712.222656 C 872.503906 713.992188 869.910156 717.617188 870.441406 719.820312 C 871 722.136719 873.671875 720.089844 874.785156 719.203125 C 879.5 715.4375 882.78125 709.734375 879.015625 704.296875 L 878.484375 704.480469 C 878.144531 701.558594 880.46875 696.957031 879.011719 693.988281 C 877.332031 690.574219 874.222656 692.660156 872.402344 694.644531 L 872.585938 694.46875 C 872.203125 697.503906 871.542969 700.363281 870.851562 703.339844 C 870.445312 705.105469 869.054688 711.859375 872.222656 712.125 Z M 816.890625 696.539062 C 817.511719 701.730469 818.398438 706.882812 819.027344 712.0625 C 819.722656 717.828125 820.734375 723.539062 821.054688 729.328125 C 821.183594 731.59375 820.605469 736.109375 821.753906 738.148438 C 823.503906 733.582031 823.496094 728.101562 824.027344 723.292969 C 824.429688 719.664062 825.199219 716.132812 825.148438 712.507812 C 825.089844 707.710938 822.898438 703.300781 821.730469 698.613281 C 820.253906 692.699219 818.25 686.835938 816.292969 681.0625 L 817.007812 688.214844 C 815.902344 690.308594 816.605469 694.140625 816.890625 696.539062 Z M 809.144531 602.792969 C 814.375 610.527344 816.054688 616.566406 815.96875 626.144531 C 815.941406 629.15625 816.070312 632.164062 816.03125 635.167969 C 816.003906 638.082031 814.78125 640.742188 814.691406 643.589844 C 814.546875 648.609375 815.539062 654.027344 815.585938 659.164062 C 818.472656 658.523438 820.59375 657.453125 823.144531 655.796875 C 823.152344 659.3125 820.828125 663.601562 818.136719 665.765625 C 819.585938 669.132812 821.371094 673.382812 821.921875 677.039062 C 822.3125 679.605469 821.472656 682.511719 822.175781 684.996094 C 822.882812 687.488281 824.214844 690.046875 825 692.625 C 825.925781 695.664062 826.617188 698.78125 827.769531 701.757812 C 833.15625 700.199219 834.925781 692.320312 840.574219 690.394531 C 835.878906 695.285156 830.625 702.386719 832.441406 709.484375 C 834.375 709.191406 840.714844 722.65625 842.742188 722.523438 C 841.570312 718.121094 840.007812 701.507812 845.597656 700.019531 C 849.648438 698.9375 856.308594 701.632812 859.359375 698.21875 C 860.574219 696.863281 860.414062 694.523438 860.96875 692.859375 C 861.710938 690.621094 859.539062 683.03125 867.578125 684.636719 C 877.605469 686.640625 847.207031 666.589844 831.921875 670.175781 C 835.570312 667.699219 842.710938 661.855469 847.195312 663.285156 C 851.6875 664.714844 859.046875 670.773438 861.507812 674.457031 C 858.332031 669.195312 851.691406 661.695312 850.179688 655.734375 C 848.453125 648.976562 847.527344 641.917969 845.421875 635.273438 C 843.382812 628.816406 839.152344 622.921875 834.585938 617.992188 C 830.375 613.445312 825.332031 611.144531 820.039062 608.167969 C 814.519531 605.066406 809.390625 601.3125 804.144531 597.789062 Z M 685.484375 635.316406 L 685.839844 636.746094 C 688.417969 634.863281 690.101562 631.414062 692.386719 629.148438 C 696.097656 625.484375 700.167969 622.820312 704.628906 620.164062 C 714.308594 614.402344 725.011719 610.679688 734.714844 605 C 726.109375 605.097656 718.640625 605.773438 711.347656 610.691406 C 701.125 617.582031 694.539062 627.230469 685.484375 635.316406 Z M 751.121094 660.695312 C 754.402344 658.847656 759.882812 658.160156 761.609375 654.257812 L 757.320312 654.257812 C 740.332031 652.179688 722.441406 669.230469 716.964844 684.210938 C 723.152344 678.832031 728.53125 672.050781 735.808594 668.105469 C 740.808594 665.394531 746.164062 663.480469 751.121094 660.695312 Z M 680.476562 655.328125 C 684.429688 649.730469 688.121094 644.085938 693.261719 639.476562 C 705.007812 628.957031 718.921875 619.855469 734.988281 618.796875 C 746.304688 618.050781 757.65625 619.789062 768.929688 620.476562 C 778.566406 621.0625 787.761719 621.824219 797.132812 624.277344 C 792.335938 620.683594 787.429688 617.472656 781.765625 615.417969 C 763.984375 608.957031 742.605469 610.269531 724.863281 616.007812 C 707.3125 621.683594 694.027344 632.613281 682.621094 646.75 Z M 814.285156 729.3125 C 813.796875 722.046875 814.082031 712.886719 810.214844 706.796875 L 810.214844 727.527344 C 810.191406 742.476562 807 757.984375 803 772.449219 C 807.285156 769.128906 811.648438 764.859375 817.003906 763.5625 C 814.160156 752.527344 815.046875 740.710938 814.285156 729.3125 Z M 738.246094 570.335938 C 743.40625 571.789062 749.113281 571.1875 754.402344 571.386719 C 757.136719 571.492188 759.082031 571.929688 759.886719 574.8125 C 761.183594 571.121094 759.535156 565.953125 759.550781 561.957031 L 757.40625 558.742188 C 752.875 564.828125 743.703125 565.199219 738.246094 570.335938 Z M 888.492188 865.398438 C 873.539062 865.398438 861.414062 875.902344 861.414062 888.855469 C 861.414062 901.804688 873.539062 912.308594 888.492188 912.308594 C 903.441406 912.308594 915.503906 903.273438 915.503906 890.328125 C 915.503906 877.371094 903.441406 865.398438 888.492188 865.398438 Z M 662.285156 655.523438 C 665.3125 655.574219 668.960938 656.054688 671.875 654.984375 C 674.035156 654.191406 674.582031 652.261719 675.132812 650.21875 C 676.027344 646.917969 677.132812 643.792969 678.691406 640.742188 C 680.792969 636.632812 683.289062 632.722656 685.730469 628.808594 C 688.078125 625.046875 690.398438 621.21875 693.167969 617.746094 C 698.152344 611.484375 704.820312 608.214844 711.960938 605.011719 C 711.871094 604.984375 711.78125 604.96875 711.6875 604.949219 C 711.632812 604.882812 711.65625 604.84375 711.75 604.839844 C 708.511719 604.777344 704.824219 604.566406 701.742188 603.671875 C 699.027344 602.878906 693.902344 601.332031 692.546875 598.515625 C 692.132812 597.660156 692.160156 596.585938 691.984375 595.667969 C 691.714844 594.273438 691.273438 592.921875 690.832031 591.570312 C 689.683594 591.386719 688.425781 591.109375 687.597656 592.113281 C 686.335938 593.632812 686.371094 596.777344 686.164062 598.625 C 685.804688 601.929688 686.253906 605.699219 685.007812 608.835938 C 683.566406 612.449219 680.234375 614.792969 678.832031 618.453125 C 678.59375 616.851562 678.304688 615.417969 678.207031 613.78125 C 678.085938 611.746094 678.261719 609.527344 677.765625 607.542969 C 675.671875 613.210938 673.585938 618.882812 671.484375 624.546875 C 669.632812 629.527344 667.941406 634.703125 665.429688 639.402344 C 663.886719 642.292969 661.894531 644.648438 658.5625 645.328125 C 655.417969 645.96875 652.003906 645.5625 648.847656 645.171875 C 646.164062 644.851562 643.535156 644.339844 640.9375 643.585938 L 641.890625 643.902344 C 643.273438 646.917969 644.507812 650.246094 646.46875 652.949219 C 647.863281 654.867188 649.570312 655.394531 651.871094 655.480469 C 655.335938 655.613281 658.820312 655.464844 662.285156 655.523438 Z M 799.894531 499.636719 C 805.390625 513.710938 803.515625 521.886719 803.515625 521.886719 C 803.515625 521.886719 804.855469 521.082031 806.195312 518.800781 C 807.535156 516.523438 809.542969 509.554688 809.414062 505.265625 C 809.335938 502.851562 809.144531 497.492188 809.144531 497.492188 L 815.175781 488.914062 L 806.730469 491.191406 C 806.730469 491.191406 806.730469 491.191406 805.257812 487.976562 C 803.785156 484.757812 802.441406 482.214844 802.441406 482.214844 L 813.832031 467.738281 L 796.949219 476.316406 C 795.605469 474.304688 785.824219 469.617188 785.824219 469.617188 L 790.113281 455.945312 L 775.367188 467.738281 C 775.367188 467.738281 775.367188 467.738281 772.6875 467.738281 C 770.007812 467.738281 764.246094 468.808594 764.246094 468.808594 L 771.078125 453.800781 L 757.945312 468.675781 L 755.398438 470.6875 C 755.398438 470.6875 764.914062 471.625 773.492188 474.84375 C 779.808594 477.207031 794.402344 485.566406 799.894531 499.636719 Z M 867.847656 796.105469 C 867.847656 783.152344 855.726562 772.652344 840.773438 772.652344 C 825.820312 772.652344 813.699219 783.152344 813.699219 796.105469 C 813.699219 809.058594 825.820312 819.5625 840.773438 819.5625 C 855.726562 819.5625 867.847656 809.058594 867.847656 796.105469 Z M 735.324219 487.066406 C 735.457031 486.996094 735.597656 486.945312 735.742188 486.90625 C 736.765625 486.550781 737.898438 486.382812 738.691406 486.367188 C 739.152344 486.359375 739.558594 486.472656 739.964844 486.574219 C 740.464844 486.527344 740.964844 486.484375 741.460938 486.445312 C 741.78125 486.429688 742.089844 486.367188 742.390625 486.296875 C 742.613281 486.160156 742.835938 486.007812 743.070312 485.835938 C 745.621094 483.976562 748.871094 484.359375 751.921875 484.097656 C 752.5 483.992188 752.515625 484.046875 751.921875 484.097656 C 749.953125 484.46875 748.035156 485.089844 746.023438 485.265625 C 744.742188 485.371094 746.136719 487.675781 744.898438 487.976562 C 744.433594 488.261719 743.25 488.117188 742.578125 488.066406 C 742.292969 488.042969 740.609375 487.773438 740.34375 487.707031 C 739.570312 487.78125 738.699219 487.609375 737.929688 487.617188 C 737.132812 487.625 736.121094 487.738281 735.605469 487.886719 C 735.464844 487.933594 735.117188 488.363281 734.980469 488.421875 C 734.527344 488.636719 733.640625 488.332031 733.640625 488.332031 C 733.96875 487.785156 734.59375 487.371094 735.324219 487.066406 Z M 753.417969 488.957031 C 754.367188 488.960938 755.425781 489.082031 756.324219 488.746094 C 757.117188 488.453125 757.644531 487.957031 758.519531 487.863281 C 759.363281 487.769531 760.082031 487.800781 760.914062 487.949219 C 762.332031 488.210938 763.769531 488.167969 765.210938 488.167969 C 766.480469 488.167969 767.78125 488.023438 769.046875 487.90625 C 769.550781 487.859375 770.777344 487.90625 771.609375 487.6875 C 771.863281 487.488281 770.390625 488.757812 769.699219 489.199219 C 768.597656 489.910156 767.230469 489.925781 765.957031 490 C 764.382812 490.097656 762.808594 489.992188 761.230469 490.03125 C 760.316406 490.050781 759.273438 489.859375 758.398438 490.121094 C 754.84375 491.164062 751.277344 489.816406 747.667969 490.476562 L 748.96875 489.632812 C 749.972656 488.972656 750.628906 488.949219 751.871094 488.9375 C 752.386719 488.9375 752.90625 488.957031 753.417969 488.957031 Z M 776.089844 493.855469 C 777.089844 494.203125 777.5625 494.699219 778.695312 494.675781 C 780.417969 494.636719 782.863281 494.515625 784.136719 493.1875 C 782.828125 495.214844 781.507812 496.835938 778.953125 497.167969 C 777.324219 497.375 775.65625 497.238281 774.019531 497.25 C 772.878906 497.257812 771.714844 497.375 770.570312 497.285156 C 768.121094 497.085938 765.847656 496.335938 763.359375 496.507812 C 761.683594 496.625 759.976562 496.636719 758.296875 496.5625 C 757.992188 496.550781 755.554688 496.390625 756.871094 495.75 L 760.179688 495.03125 C 761.765625 493.585938 764.734375 494.132812 766.671875 494.140625 C 768.984375 494.140625 771.179688 493.9375 773.480469 493.734375 C 774.296875 493.664062 775.300781 493.570312 776.089844 493.855469 Z M 788.085938 501.992188 C 789.1875 502.25 791.984375 503.011719 792.792969 501.929688 C 792.363281 502.515625 792.023438 503.300781 791.332031 503.605469 C 790.414062 504.015625 789.074219 503.742188 788.097656 503.777344 C 785.882812 503.851562 783.644531 505.191406 781.476562 504.90625 C 779.597656 504.664062 777.980469 503.339844 776.234375 502.683594 C 775 502.21875 773.832031 502.597656 772.5625 502.789062 C 769.960938 503.179688 767.320312 503.824219 764.695312 504 C 763.554688 504.074219 762.792969 503.847656 762.054688 502.984375 L 770.722656 502.09375 C 772.777344 501.480469 775.652344 501.304688 777.753906 501.765625 C 778.597656 501.949219 779.375 502.34375 780.242188 502.460938 C 781.582031 502.636719 783.257812 502.734375 784.597656 502.558594 C 785.914062 502.394531 786.734375 501.675781 788.085938 501.992188 Z M 718.984375 529.84375 C 719.867188 531.75 721.367188 534.824219 723.5 535.636719 C 725.339844 536.34375 725.375 533.832031 725.324219 532.640625 C 725.21875 530.320312 724.617188 528.046875 724.21875 525.765625 C 724.042969 524.75 723.824219 523.664062 724.160156 522.660156 C 724.472656 523.285156 724.980469 526.183594 725.757812 526.164062 C 726.460938 526.148438 726.761719 523.753906 726.839844 523.210938 C 727.011719 522.097656 727.53125 521.136719 728.84375 521.625 C 729.730469 521.957031 730.582031 522.953125 730.691406 523.910156 C 730.90625 522.070312 731.234375 520.304688 731.230469 518.453125 C 731.230469 517.332031 731.25 516.203125 731.226562 515.085938 C 731.207031 514.109375 730.765625 513.890625 730.625 512.945312 L 730.246094 512.992188 C 728.054688 513.242188 725.960938 513.019531 725.289062 510.570312 C 724.554688 507.882812 725.601562 504.796875 726.492188 502.273438 C 726.851562 501.257812 727.234375 500.167969 727.683594 499.101562 C 726.007812 499.351562 724.191406 499.277344 723.109375 499.222656 C 723.238281 498.058594 723.453125 497.042969 724.578125 496.484375 C 725.449219 496.058594 726.464844 496.074219 727.339844 495.695312 C 728.324219 495.265625 726.695312 494.089844 726.847656 493.070312 C 726.945312 492.445312 728.992188 492.117188 728.757812 491.816406 L 729.082031 491.90625 C 729.71875 492.5625 730.589844 493.476562 731.128906 494.464844 C 734.570312 492.1875 740.042969 492.777344 743.390625 494.753906 C 746.753906 495.425781 749.988281 496.296875 753 497.988281 C 757.070312 500.273438 760.554688 503.492188 763.988281 506.621094 C 767.550781 509.859375 771.09375 513.1875 775.105469 515.878906 C 778.304688 518.03125 781.605469 517.105469 785.554688 517.105469 C 790.492188 517.101562 794.613281 516.546875 796.28125 512.253906 C 794.65625 512.90625 792.859375 513.3125 791.207031 513.367188 C 789.40625 513.425781 787.046875 513.445312 785.320312 512.917969 C 784.328125 512.617188 783.835938 511.570312 782.886719 511.15625 C 781.894531 510.71875 780.492188 510.335938 779.414062 510.28125 C 776.917969 510.160156 774.394531 510.175781 771.886719 510.121094 C 772.09375 509.1875 773.941406 508.769531 774.652344 508.433594 L 778.316406 508.796875 C 779.074219 507.863281 780.265625 508.171875 781.3125 508.1875 C 782.261719 508.203125 782.777344 508.03125 783.542969 508.636719 C 785.375 510.097656 787.050781 510.765625 789.398438 510.207031 C 791.113281 509.792969 793.613281 508.65625 795.222656 509.769531 C 795.839844 510.199219 796.230469 510.636719 796.707031 510.953125 C 796.996094 509.945312 797.175781 508.902344 797.234375 507.855469 C 797.53125 502.582031 794.765625 498.59375 790.734375 495.527344 C 787.253906 492.878906 783.996094 490.300781 780.992188 487.097656 C 779.5625 486.746094 778.078125 486.417969 776.742188 485.769531 C 775.890625 485.351562 775.234375 484.742188 774.460938 484.214844 C 772.519531 482.878906 769.84375 483.203125 767.605469 483.027344 C 762.683594 482.628906 758.082031 479.734375 753.105469 480.800781 C 750.925781 481.273438 748.980469 481.570312 746.738281 481.460938 C 744.378906 481.351562 741.601562 481.09375 739.425781 482.222656 C 738.070312 482.921875 737.578125 484.398438 736.476562 485.386719 C 735.007812 486.710938 732.695312 487.960938 730.652344 487.746094 C 729.175781 487.585938 728.449219 486.839844 727.039062 487.78125 C 725.457031 488.832031 723.007812 489.136719 723.066406 491.925781 C 723.226562 491.867188 723.878906 492.207031 723.878906 492.851562 C 723.273438 494.859375 722.316406 495.691406 721.21875 497.480469 C 720.003906 499.453125 718.585938 501.296875 717.800781 503.5 C 716.335938 507.621094 717.609375 511.753906 717.464844 515.96875 C 717.394531 517.90625 717.015625 519.816406 717.042969 521.757812 C 717.074219 524.558594 717.808594 527.316406 718.984375 529.84375 Z M 645.691406 642.207031 C 647.894531 643.621094 650.382812 642.589844 652.25 641.109375 C 655.65625 638.414062 658.027344 634.382812 660.085938 630.640625 C 663.132812 625.105469 665.609375 619.265625 667.9375 613.398438 C 672.59375 601.675781 671.015625 586.773438 675.785156 575.09375 C 678.582031 568.257812 687.410156 564.65625 690.878906 558.144531 C 693.34375 553.523438 695.285156 548.773438 696.789062 543.757812 C 697.164062 542.511719 697.519531 541.253906 697.878906 540.003906 C 696.375 540.933594 691.46875 543.109375 691.46875 543.109375 L 688.519531 544.355469 C 683.234375 546.957031 678.390625 549.867188 674.695312 554.5625 C 670.273438 560.1875 667.632812 566.992188 664.84375 573.503906 C 662.027344 580.070312 658.90625 586.386719 655.023438 592.386719 C 651.054688 598.527344 646.886719 604.503906 644.292969 611.394531 C 641.53125 618.75 640.097656 627.246094 641.792969 635.019531 C 642.351562 637.585938 643.359375 640.707031 645.691406 642.207031 Z M 746.199219 480.394531 C 748.859375 480.417969 751.480469 480.679688 754.152344 480.542969 C 756.898438 480.402344 759.648438 480.125 762.398438 480.382812 C 767.023438 480.8125 771.996094 481.207031 776.085938 483.5625 C 777.925781 484.621094 779.65625 485.578125 781.679688 486.25 C 783.492188 486.851562 784.847656 487.554688 785.914062 489.195312 C 787.023438 490.902344 787.832031 492.628906 789.648438 493.707031 C 790.574219 494.261719 793.84375 494.851562 794.132812 496.019531 C 793.042969 492.558594 790.472656 488.398438 787.429688 486.367188 C 783.09375 483.476562 779.65625 481.542969 773.273438 479.246094 C 768.304688 477.464844 764.230469 473.703125 758.996094 472.6875 C 754.574219 471.828125 749.933594 471.972656 745.503906 472.695312 C 742.292969 473.222656 738.789062 473.96875 736.5 476.449219 L 736.949219 477.253906 C 736.078125 477 734.671875 478.46875 733.964844 478.859375 C 733.253906 479.253906 732.636719 479.253906 732.234375 479.9375 C 731.503906 481.15625 731.617188 482.9375 731.6875 484.300781 C 736.441406 482.769531 741.097656 480.347656 746.199219 480.394531 Z M 710.035156 533.855469 C 708.257812 534.523438 706.332031 535.316406 705.199219 536.847656 C 704.234375 538.148438 704.339844 539.714844 705.804688 540.5625 C 707.46875 541.519531 709.695312 541.335938 711.542969 541.390625 C 713.191406 541.4375 714.730469 541.664062 716.296875 542.199219 C 716.128906 541.113281 715.269531 540.160156 714.796875 539.191406 C 714.097656 537.769531 713.652344 536.226562 713.027344 534.769531 C 712.601562 533.769531 712.199219 533.347656 711.035156 533.453125 L 710.855469 533.546875 Z M 710.894531 530.285156 C 712.632812 531.050781 714.050781 532.617188 715.210938 534.4375 C 717.199219 537.5625 716.742188 537.691406 718.097656 541.136719 C 718.746094 542.792969 720.867188 543.199219 721.402344 546.5 C 722.386719 552.582031 721.761719 559.71875 720.902344 564.855469 C 720.777344 565.613281 720.648438 566.371094 720.515625 567.128906 C 721.089844 567.1875 721.789062 566.429688 722.351562 566.230469 C 723.207031 565.925781 724.015625 565.878906 724.84375 565.445312 C 725.835938 564.921875 726.738281 564.449219 727.667969 563.816406 C 728.40625 563.3125 729.359375 562.179688 729.253906 562.175781 C 730.898438 559.6875 732.785156 556.8125 731.632812 553.726562 C 730.527344 550.777344 727.542969 548.894531 725.0625 547.203125 C 723.429688 546.09375 721.578125 544.996094 721.21875 542.910156 C 720.859375 540.828125 720.996094 538.921875 719.996094 536.972656 C 718.457031 533.980469 715.667969 531.761719 713.117188 529.675781 C 712.449219 529.128906 711.785156 528.585938 711.125 528.039062 L 711.425781 525.058594 L 695.050781 425.890625 L 694.019531 424.84375 L 708.90625 526.199219 C 707.332031 524.875 705.773438 523.527344 704.261719 522.113281 C 702.457031 520.421875 700.71875 518.542969 698.613281 517.210938 C 697.21875 516.332031 695.730469 515.703125 694.460938 514.613281 C 692.882812 513.261719 691.339844 510.703125 689.25 510.132812 C 686.773438 509.453125 685.449219 513.394531 684.6875 515.039062 C 684.25 512.957031 683.820312 510.375 681.957031 509.0625 C 681.421875 508.683594 679.257812 508.316406 680.175781 507.683594 C 681.382812 506.847656 683.507812 507.632812 684.847656 507.488281 C 685.640625 507.40625 685.570312 504.863281 685.570312 504.863281 C 681.839844 504.429688 679.496094 505.523438 676.652344 508.449219 C 673.90625 511.265625 673.488281 515.578125 675 519.105469 C 676.65625 522.96875 683.609375 525.210938 685.839844 528.722656 C 688.121094 532.3125 685.222656 536.910156 686.90625 540.730469 C 688.566406 544.503906 691.75 541.601562 693.859375 539.730469 C 697.664062 536.359375 701.457031 531.824219 706.417969 530.15625 C 707.515625 529.789062 708.519531 529.71875 709.449219 529.863281 Z M 694.492188 511.550781 L 705.085938 520.53125 L 680.210938 349.230469 C 680.210938 349.230469 679.136719 341.351562 675.710938 335.511719 C 675.710938 335.511719 673.238281 343.761719 674.910156 354.242188 Z M 733.910156 525.859375 C 732.21875 527.230469 731.605469 525.542969 731.625 527.847656 C 731.636719 529.253906 732.097656 531.277344 733.960938 531.011719 C 734.78125 530.894531 735.300781 530.191406 735.925781 529.726562 C 736.9375 528.980469 738.121094 528.75 739.339844 528.578125 C 739.953125 528.488281 742.007812 528.527344 742.125 527.648438 C 742.242188 526.742188 740.234375 525.796875 739.632812 525.488281 C 737.652344 524.480469 736.644531 524.105469 734.539062 523.894531 C 734.539062 523.894531 734.3125 525.539062 733.910156 525.859375 Z M 753.835938 515.585938 L 753.925781 515.675781 C 753.300781 515.601562 752.019531 516.480469 751.425781 516.75 C 750.722656 517.066406 749.660156 517.265625 749.085938 517.730469 C 750.808594 517.769531 753 517.433594 754.574219 516.75 C 755.984375 516.140625 754.691406 515.742188 753.835938 515.585938 Z M 734.765625 599.167969 C 736.894531 598.53125 738.976562 597.746094 741.046875 596.949219 C 743.300781 596.085938 747.042969 595.652344 748.636719 593.875 C 745.589844 592.257812 742.453125 591.496094 739.027344 591.148438 C 736.488281 590.894531 733.050781 591.292969 730.726562 590.027344 C 728.675781 588.90625 724.617188 586.117188 724.617188 586.117188 C 724.652344 588.980469 721.117188 592.734375 719.453125 594.949219 C 717.835938 597.105469 715.585938 599.066406 715.039062 601.871094 C 718.234375 601.894531 721.316406 600.710938 724.539062 600.546875 C 727.984375 600.375 731.464844 600.152344 734.765625 599.167969 Z M 745.621094 534.398438 C 746.191406 533.804688 744.289062 533.691406 743.835938 533.625 C 742.585938 533.4375 741.332031 533.324219 740.074219 533.183594 L 740.253906 533.363281 C 739.699219 533.648438 739.070312 533.710938 738.519531 533.976562 C 737.832031 534.304688 737.226562 534.902344 736.691406 535.421875 C 735.84375 536.238281 735.152344 536.941406 735.261719 538.179688 C 736.027344 537.527344 736.777344 536.832031 737.628906 536.300781 C 738.765625 535.59375 740.042969 535.289062 741.347656 535.085938 C 742.183594 534.953125 743.023438 534.867188 743.859375 534.753906 C 744.242188 534.699219 745.335938 534.703125 745.621094 534.398438 Z M 756.605469 513.886719 C 757.484375 514.335938 758.53125 514.226562 759.226562 513.140625 C 760.394531 511.308594 757.917969 508.699219 756.695312 507.695312 C 753.730469 505.246094 749.691406 504.082031 745.894531 503.957031 C 742.65625 503.847656 738.289062 504.472656 736.351562 507.441406 C 733.601562 511.671875 739.695312 518.03125 744.167969 516.722656 C 747.355469 515.789062 745.175781 511.289062 747.796875 509.957031 C 750.542969 508.5625 754.265625 511.265625 756.335938 512.816406 Z M 753.453125 513.351562 L 754.640625 514.066406 C 754.800781 514.097656 755 514.070312 755.164062 514.054688 C 754.207031 512.78125 753.074219 511.4375 751.46875 511.019531 C 749.65625 510.550781 748.148438 511.632812 747.253906 513.140625 C 747.0625 513.464844 745.753906 516.332031 746.515625 516.339844 C 746.824219 516.34375 747.402344 515.109375 747.535156 514.898438 C 747.535156 514.898438 748.679688 515.972656 749.574219 515.777344 C 752.042969 515.238281 751.878906 512.378906 753.453125 513.351562 Z M 685.308594 886.839844 C 684.234375 883.644531 683.910156 881.1875 683.164062 877.90625 C 682.332031 874.222656 679.796875 872.671875 679.527344 868.898438 C 679.226562 864.765625 677.9375 861.089844 677.226562 857.03125 C 675.800781 848.890625 674.851562 840.5 672.679688 832.511719 C 673.890625 832.738281 675.144531 832.835938 676.34375 832.664062 C 670.507812 821.417969 668 809.472656 666.707031 796.910156 C 664.882812 779.207031 664.921875 761.234375 666.023438 743.484375 C 666.605469 734.070312 667.402344 724.578125 670.039062 715.488281 C 676.140625 694.445312 685.507812 674.375 697.992188 656.402344 L 695.132812 659.617188 C 692.789062 663.363281 688.566406 665.480469 685.878906 669 C 684.40625 670.933594 682.417969 674.457031 680.039062 675.433594 C 680.96875 672.242188 683.488281 665.035156 681.941406 662.003906 C 681.136719 663.417969 676.871094 669.140625 675.632812 669.257812 C 674.140625 669.195312 672.652344 669.171875 671.210938 669.605469 C 671.15625 673.1875 669.359375 676.363281 668.804688 679.851562 C 668.550781 681.449219 668.703125 682.820312 668.144531 684.390625 C 667.375 686.550781 665.8125 688.28125 664.984375 690.457031 C 663.023438 695.621094 662.289062 701.410156 661.109375 706.792969 C 659.210938 715.480469 657.707031 724.527344 656.324219 733.316406 C 654.964844 741.976562 657.671875 750.308594 656.851562 758.910156 C 654.515625 772.757812 654.476562 786.945312 654.769531 800.945312 C 655.03125 813.558594 656.050781 826.125 655.878906 838.746094 C 655.753906 847.777344 654.28125 859.460938 654.832031 868.53125 Z M 866.6875 763.273438 L 868.296875 753.621094 L 868.296875 738.25 C 868.296875 738.25 867.054688 727.4375 864.726562 727.792969 C 862.40625 728.152344 859.71875 739.320312 859.71875 739.320312 L 860.253906 754.691406 L 836.664062 716.980469 C 836.664062 716.980469 835.597656 715.195312 835.238281 714.660156 C 834.875 714.125 833.804688 713.945312 832.378906 714.125 C 830.945312 714.304688 833.089844 719.664062 833.089844 719.664062 L 832.554688 720.558594 L 818.257812 780.066406 L 824.691406 772.921875 L 834.699219 722.164062 L 835.835938 723.050781 L 841.910156 770.769531 L 843.101562 770.242188 L 838.988281 728.0625 L 858.824219 776.3125 L 860.613281 777.210938 L 844.710938 737.355469 L 860.789062 760.765625 C 860.789062 760.765625 860.789062 760.765625 861.144531 761.660156 C 861.503906 762.550781 861.328125 767.378906 861.328125 769.34375 C 861.328125 771.3125 863.109375 773.628906 864.007812 774.167969 C 864.898438 774.703125 865.792969 773.453125 865.96875 772.921875 C 866.152344 772.386719 866.6875 769.167969 866.6875 769.167969 C 866.6875 769.167969 890.09375 804.371094 890.632812 805.441406 C 891.167969 806.515625 891.527344 807.050781 891.527344 807.765625 C 891.527344 808.484375 890.453125 809.730469 890.453125 809.730469 L 867.761719 871.566406 L 870.082031 869.773438 L 892.777344 812.054688 L 879.375 864.949219 L 880.804688 863.878906 L 894.742188 812.410156 L 910.109375 872.992188 L 915.292969 877.460938 C 915.292969 877.460938 895.640625 810.265625 896.171875 809.375 C 896.710938 808.484375 895.8125 805.796875 895.8125 805.796875 L 867.402344 764.34375 Z M 692.945312 577.839844 C 692.035156 582.339844 692.824219 588.34375 696.734375 591.277344 C 698.726562 592.773438 701.328125 594.914062 703.707031 595.414062 C 703.570312 597.757812 704.664062 599.730469 707.464844 599.542969 C 708.542969 599.46875 710.121094 599.15625 710.945312 598.390625 C 711.460938 597.914062 711.617188 597.203125 711.835938 596.554688 C 714.875 595.257812 717.941406 593.839844 719.976562 591.113281 C 721.894531 588.546875 722.679688 585.265625 722.675781 582.097656 C 722.675781 577.652344 721.019531 573.96875 717.433594 571.339844 C 716.246094 570.472656 714.984375 569.703125 713.726562 568.941406 C 712.976562 565.394531 712.179688 560.046875 707.976562 559.011719 C 704.304688 558.105469 700.050781 560.253906 696.777344 561.6875 C 693.0625 563.320312 689.3125 565.132812 686.605469 568.25 C 683.097656 572.28125 681.6875 577.664062 680.914062 582.832031 C 680.027344 588.746094 679.753906 594.753906 679.148438 600.695312 C 682.085938 600.15625 681.121094 583.394531 684.554688 575.675781 C 685.484375 573.59375 686.773438 571.675781 688.992188 570.855469 C 690.964844 570.121094 693.183594 570.121094 695.253906 569.886719 C 697.585938 569.621094 699.839844 569.113281 702.101562 568.480469 L 703.710938 568.574219 C 698.566406 570.039062 694.097656 572.128906 692.945312 577.839844 Z M 713 555.078125 L 713 555.34375 C 713.324219 557.386719 714.085938 559.277344 714.789062 561.207031 C 715.671875 563.640625 716.109375 566.0625 716.6875 568.558594 C 716.804688 569.054688 716.714844 569.3125 717.125 569.054688 C 717.664062 568.71875 717.984375 566.914062 718.152344 566.363281 C 719.039062 563.417969 719.738281 559.839844 718.640625 556.851562 C 717.617188 554.054688 715.398438 554.101562 713 555.078125 Z M 720.398438 555.613281 C 720.398438 553.371094 721.09375 549.195312 719.242188 547.515625 C 717.558594 545.984375 713.394531 545.039062 711.304688 546.144531 L 711.214844 546.144531 C 710.890625 548.75 714.265625 550.113281 716.023438 551.257812 C 717.246094 552.058594 718.53125 552.628906 719.488281 553.785156 C 719.953125 554.355469 719.996094 555.023438 720.398438 555.613281 Z M 737.015625 783.949219 C 737.289062 778.5625 737.9375 773.015625 740.234375 768.042969 C 742.640625 762.855469 745.863281 758.351562 747.964844 752.941406 C 749.59375 748.75 752.609375 745.4375 755.007812 741.640625 C 757.816406 737.214844 762.765625 732.679688 763.496094 727.28125 C 760.347656 726.410156 756.015625 728.886719 754.289062 731.441406 L 750 741.09375 C 741.882812 747.53125 737.976562 754.113281 733.832031 763.53125 C 730.066406 772.089844 728.867188 781.265625 727.058594 790.3125 C 723.921875 806.015625 726.632812 822.367188 725.398438 838.277344 C 728.042969 837.070312 729.496094 837.445312 731.097656 834.589844 C 733.925781 829.53125 733.839844 823.523438 734.691406 817.941406 C 736.367188 806.925781 736.441406 795.148438 737.015625 783.949219 Z M 790.0625 663.121094 C 796.582031 661.746094 803.625 665.261719 810.394531 665.710938 C 811.257812 666.097656 812.144531 666.457031 813.101562 666.746094 C 813.214844 659.472656 808.40625 651.707031 805.0625 645.558594 C 800.203125 636.605469 794.597656 632.953125 784.976562 630.164062 C 777.035156 627.863281 769.078125 624.453125 760.792969 623.683594 C 748.558594 622.546875 735.910156 624.265625 723.722656 625.308594 L 723.007812 628.167969 C 719.59375 629.457031 711.9375 630.664062 710.902344 634.914062 C 717.214844 633.367188 723.292969 633.964844 729.714844 634.484375 C 739.4375 635.265625 748.234375 636.6875 757.597656 639.644531 C 762.78125 641.285156 767.894531 643.265625 773.046875 645.015625 C 779.007812 647.042969 783.140625 650.636719 787.898438 654.308594 L 787.34375 654.257812 C 777.820312 652.660156 770.332031 654.554688 762.847656 660.839844 C 753.417969 668.761719 745.949219 679.316406 738.917969 689.335938 C 730.878906 700.78125 723.773438 712.941406 719.460938 726.320312 C 715.136719 739.726562 714.621094 753.1875 714.851562 767.136719 C 715.101562 782.566406 712.070312 796.675781 707.675781 811.398438 C 716.484375 799.125 723.589844 787.453125 727.199219 772.6875 C 731.1875 756.371094 738.007812 742.121094 747.03125 727.96875 C 755.445312 714.765625 763.539062 701.925781 770.0625 687.664062 C 774.054688 678.953125 779.394531 665.359375 790.0625 663.121094 Z M 811.871094 635.210938 C 812.542969 630.597656 811.855469 625.699219 811.160156 621.167969 C 810.707031 618.199219 810.261719 615.089844 809.515625 612.195312 C 809.152344 610.769531 808.691406 606.507812 807.535156 604.582031 C 804.769531 602.550781 803.023438 604.089844 800.332031 601.96875 C 797.960938 600.101562 795.753906 596.394531 792.964844 595.253906 C 789.40625 593.792969 787.246094 597.523438 785.035156 599.78125 C 781.550781 603.339844 759.796875 602.21875 760.890625 603.777344 L 775.101562 604.042969 C 778.46875 604.132812 783.113281 605.089844 786.054688 606.738281 C 791.113281 609.574219 794.976562 612.820312 798.652344 617.289062 C 803.496094 623.183594 808.410156 628.273438 811.871094 635.210938 Z M 771.761719 522.1875 C 772.175781 521.664062 772.960938 521.414062 773.632812 521.808594 C 774.613281 522.386719 773.890625 524.4375 775.480469 524.410156 C 775.808594 522.914062 775.25 519.820312 773.421875 519.410156 C 771.839844 519.054688 769.660156 521.9375 771.480469 522.957031 C 771.480469 522.957031 771.636719 522.347656 771.761719 522.1875 Z M 808.429688 672.484375 L 805.574219 679.277344 C 803.9375 686.296875 799.65625 693.136719 795.980469 699.265625 C 792.636719 704.84375 789.328125 709.234375 783.871094 712.808594 C 774.871094 718.691406 771.503906 724.476562 770.433594 734.890625 C 776.773438 729.390625 783.769531 724.664062 792.3125 724.242188 C 796.632812 724.03125 799.921875 721.703125 800.949219 717.222656 C 802.464844 710.628906 803.117188 703.441406 804.199219 696.71875 C 805.445312 689.003906 809.230469 680.328125 808.429688 672.484375 Z M 765.601562 551.167969 C 764.386719 555.207031 763.765625 559.429688 763.421875 563.628906 C 763.121094 567.324219 762.84375 571.273438 763.527344 574.949219 C 763.886719 576.886719 764.792969 578.101562 766.226562 576.109375 C 768.554688 572.875 769.8125 568.660156 771.214844 564.980469 C 774.828125 555.539062 778.292969 546.175781 783.511719 537.476562 C 781.882812 541.1875 781.703125 545.34375 781.539062 549.339844 C 781.324219 554.851562 781.59375 560.347656 781.507812 565.855469 C 781.453125 569.46875 780.949219 573.085938 781.574219 576.671875 C 782.347656 581.058594 784.71875 584.742188 788.746094 586.761719 C 792.015625 588.40625 795.398438 589.148438 798.320312 591.453125 C 798.417969 581.058594 798.621094 570.675781 799.511719 560.3125 C 800.210938 552.226562 801.242188 544.175781 801.746094 536.078125 C 801.96875 532.414062 802.109375 528.742188 802.074219 525.074219 C 802.042969 522.273438 802.039062 519.308594 801.296875 516.585938 C 800.925781 515.21875 800.230469 513.6875 798.570312 513.878906 C 796.722656 514.097656 796.414062 518.074219 794.9375 519.070312 C 792.589844 520.644531 788.683594 519.738281 785.914062 520.429688 C 783.257812 521.09375 780.5625 520.890625 777.871094 520.589844 L 777.78125 520.765625 C 777.492188 526.144531 776.824219 531.234375 774.015625 535.9375 C 772.65625 538.203125 771.019531 540.28125 769.585938 542.496094 C 767.851562 545.195312 766.519531 548.097656 765.601562 551.167969 Z M 766.441406 762.105469 L 757.148438 779.261719 C 752.859375 790.695312 756.945312 801.597656 756.285156 805.257812 C 754.699219 814.015625 752.183594 821.367188 747.335938 828.917969 C 742.855469 835.898438 739.660156 844.625 739.003906 852.921875 C 738.082031 864.695312 729.246094 893.910156 728.914062 905.78125 C 728.914062 905.78125 744.664062 912.242188 749.644531 913.285156 C 749.644531 913.285156 759.84375 909.820312 762.507812 908.640625 C 765.21875 907.441406 764.699219 894.0625 766.441406 889.699219 C 766.183594 881.628906 767.285156 875.261719 767.984375 867.203125 C 768.703125 858.945312 768.441406 850.65625 768.96875 842.378906 C 769.484375 834.304688 769.175781 826.121094 768.308594 818.085938 C 767.386719 809.539062 764.296875 785.695312 766.441406 762.105469 Z M 742.21875 538.105469 C 739.714844 538.035156 735.789062 538.417969 735.574219 541.734375 C 735.386719 544.636719 741.15625 540.683594 742.164062 540.121094 C 743.265625 539.507812 743.28125 539.074219 742.3125 538.277344 Z M 716.933594 652.113281 L 717.648438 645.679688 C 699.902344 657.316406 688.375 689.035156 688.828125 707.011719 C 689.472656 732.640625 688.417969 758.234375 689.273438 783.839844 C 689.839844 800.714844 690.152344 817.597656 690.621094 834.46875 C 691.09375 851.359375 697.003906 867.484375 697.632812 884.367188 C 699.699219 831.558594 701.980469 778.804688 702.65625 725.953125 C 702.839844 711.320312 706.007812 699.160156 710.515625 685.359375 C 714.113281 674.351562 716.550781 663.703125 716.933594 652.113281 Z M 729.277344 543.378906 C 729.222656 544.777344 728.738281 545.363281 729.554688 546.632812 C 730.023438 547.351562 730.363281 548.15625 730.894531 548.835938 C 731.351562 549.421875 731.980469 549.847656 732.414062 550.453125 C 733.578125 552.078125 734.59375 553.90625 735.667969 555.609375 C 736.617188 557.109375 737.929688 558.535156 738.667969 560.160156 C 739.359375 561.675781 739.074219 563.171875 739.445312 564.726562 C 743.746094 563.804688 747.675781 562.234375 751.476562 560.003906 C 756.792969 556.886719 761.34375 551.722656 765.003906 546.679688 C 766 545.308594 767.710938 543.503906 767.011719 541.730469 C 766.332031 539.988281 764.726562 540.488281 763.097656 540.28125 C 757.261719 539.519531 750.980469 540.859375 745.320312 542.179688 C 742.671875 542.796875 738.625 542.664062 737.035156 544.980469 C 736.707031 545.460938 736.414062 547.226562 736.414062 547.226562 C 735.96875 547.996094 735.953125 549.359375 735.375 549.972656 C 734.179688 551.238281 732.78125 549.292969 732.324219 548.371094 C 731.441406 546.574219 731.085938 544.507812 729.277344 543.378906 " fill-opacity="1" fill-rule="nonzero"/></g><path fill="#000000" d="M 865.089844 812.855469 C 862.242188 815.792969 859.140625 817 857.96875 821.125 C 856.921875 824.8125 857.984375 830.160156 857.984375 833.988281 C 857.988281 845.691406 859.722656 847.328125 860.878906 859.0625 C 864.027344 840.417969 867.882812 830.515625 866.390625 811.519531 C 865.433594 811.339844 865.207031 811.738281 864.371094 812.140625 L 865.089844 812.855469 " fill-opacity="1" fill-rule="nonzero"/><g transform="matrix(1, 0, 0, 1, 369, 956)"><g clip-path="url(#e997810500)"><g fill="#000000" fill-opacity="1"><g transform="translate(3.054465, 105.16985)"><g><path d="M 8.296875 0 L 8.296875 -79.484375 L 23.765625 -79.484375 L 23.765625 -41.703125 L 57.171875 -79.59375 L 74.21875 -79.59375 L 43.71875 -44.28125 L 76.125 0 L 58.75 0 L 33.96875 -34.421875 L 23.765625 -23.765625 L 23.765625 0 Z M 8.296875 0 "/></g></g></g><g fill="#000000" fill-opacity="1"><g transform="translate(78.034911, 105.16985)"><g><path d="M 22.875 1.125 C 20.03125 1.125 17.375 0.65625 14.90625 -0.28125 C 12.445312 -1.21875 10.316406 -2.523438 8.515625 -4.203125 C 6.722656 -5.890625 5.320312 -7.851562 4.3125 -10.09375 C 3.300781 -12.332031 2.796875 -14.796875 2.796875 -17.484375 C 2.796875 -20.253906 3.410156 -22.816406 4.640625 -25.171875 C 5.878906 -27.523438 7.597656 -29.523438 9.796875 -31.171875 C 12.003906 -32.816406 14.640625 -34.101562 17.703125 -35.03125 C 20.773438 -35.96875 24.140625 -36.4375 27.796875 -36.4375 C 30.421875 -36.4375 32.984375 -36.210938 35.484375 -35.765625 C 37.984375 -35.316406 40.207031 -34.679688 42.15625 -33.859375 L 42.15625 -37.21875 C 42.15625 -41.101562 41.050781 -44.09375 38.84375 -46.1875 C 36.632812 -48.28125 33.363281 -49.328125 29.03125 -49.328125 C 25.894531 -49.328125 22.832031 -48.765625 19.84375 -47.640625 C 16.851562 -46.523438 13.789062 -44.882812 10.65625 -42.71875 L 6.046875 -52.25 C 13.597656 -57.25 21.75 -59.75 30.5 -59.75 C 38.9375 -59.75 45.488281 -57.675781 50.15625 -53.53125 C 54.832031 -49.382812 57.171875 -43.382812 57.171875 -35.53125 L 57.171875 -17.265625 C 57.171875 -15.691406 57.453125 -14.566406 58.015625 -13.890625 C 58.578125 -13.222656 59.492188 -12.851562 60.765625 -12.78125 L 60.765625 0 C 58.222656 0.519531 56.019531 0.78125 54.15625 0.78125 C 51.3125 0.78125 49.125 0.144531 47.59375 -1.125 C 46.0625 -2.394531 45.109375 -4.078125 44.734375 -6.171875 L 44.390625 -9.421875 C 41.773438 -5.984375 38.597656 -3.363281 34.859375 -1.5625 C 31.128906 0.226562 27.132812 1.125 22.875 1.125 Z M 27.125 -9.859375 C 29.664062 -9.859375 32.078125 -10.304688 34.359375 -11.203125 C 36.640625 -12.109375 38.414062 -13.304688 39.6875 -14.796875 C 41.332031 -16.066406 42.15625 -17.488281 42.15625 -19.0625 L 42.15625 -25.78125 C 40.363281 -26.457031 38.421875 -27 36.328125 -27.40625 C 34.234375 -27.820312 32.210938 -28.03125 30.265625 -28.03125 C 26.378906 -28.03125 23.203125 -27.148438 20.734375 -25.390625 C 18.273438 -23.640625 17.046875 -21.414062 17.046875 -18.71875 C 17.046875 -16.175781 18.015625 -14.0625 19.953125 -12.375 C 21.898438 -10.695312 24.289062 -9.859375 27.125 -9.859375 Z M 27.125 -9.859375 "/></g></g></g><g fill="#000000" fill-opacity="1"><g transform="translate(142.367913, 105.16985)"><g><path d="M 41.8125 -45.734375 C 37.257812 -45.660156 33.1875 -44.78125 29.59375 -43.09375 C 26.007812 -41.414062 23.429688 -38.894531 21.859375 -35.53125 L 21.859375 0 L 6.84375 0 L 6.84375 -58.75 L 20.625 -58.75 L 20.625 -46.1875 C 21.675781 -48.207031 22.910156 -50.019531 24.328125 -51.625 C 25.742188 -53.226562 27.273438 -54.628906 28.921875 -55.828125 C 30.566406 -57.023438 32.226562 -57.941406 33.90625 -58.578125 C 35.59375 -59.210938 37.222656 -59.53125 38.796875 -59.53125 C 39.609375 -59.53125 40.21875 -59.53125 40.625 -59.53125 C 41.039062 -59.53125 41.4375 -59.492188 41.8125 -59.421875 Z M 41.8125 -45.734375 "/></g></g></g><g fill="#000000" fill-opacity="1"><g transform="translate(185.742253, 105.16985)"><g><path d="M 31.171875 1.125 C 27.128906 1.125 23.390625 0.335938 19.953125 -1.234375 C 16.515625 -2.804688 13.5625 -4.972656 11.09375 -7.734375 C 8.632812 -10.503906 6.710938 -13.738281 5.328125 -17.4375 C 3.941406 -21.132812 3.25 -25.113281 3.25 -29.375 C 3.25 -33.632812 3.898438 -37.59375 5.203125 -41.25 C 6.515625 -44.914062 8.328125 -48.128906 10.640625 -50.890625 C 12.960938 -53.660156 15.726562 -55.828125 18.9375 -57.390625 C 22.15625 -58.960938 25.671875 -59.75 29.484375 -59.75 C 33.816406 -59.75 37.71875 -58.703125 41.1875 -56.609375 C 44.664062 -54.515625 47.378906 -51.789062 49.328125 -48.4375 L 49.328125 -81.84375 L 64.34375 -81.84375 L 64.34375 -17.265625 C 64.34375 -15.691406 64.601562 -14.566406 65.125 -13.890625 C 65.65625 -13.222656 66.554688 -12.851562 67.828125 -12.78125 L 67.828125 0 C 65.210938 0.519531 63.082031 0.78125 61.4375 0.78125 C 58.75 0.78125 56.546875 0.109375 54.828125 -1.234375 C 53.109375 -2.578125 52.132812 -4.332031 51.90625 -6.5 L 51.578125 -10.203125 C 49.398438 -6.460938 46.460938 -3.640625 42.765625 -1.734375 C 39.066406 0.171875 35.203125 1.125 31.171875 1.125 Z M 35.09375 -11.65625 C 36.507812 -11.65625 37.960938 -11.894531 39.453125 -12.375 C 40.953125 -12.863281 42.335938 -13.554688 43.609375 -14.453125 C 44.878906 -15.359375 46.019531 -16.40625 47.03125 -17.59375 C 48.039062 -18.789062 48.804688 -20.101562 49.328125 -21.53125 L 49.328125 -35.53125 C 48.734375 -37.175781 47.894531 -38.691406 46.8125 -40.078125 C 45.726562 -41.460938 44.492188 -42.660156 43.109375 -43.671875 C 41.722656 -44.679688 40.265625 -45.484375 38.734375 -46.078125 C 37.203125 -46.671875 35.6875 -46.96875 34.1875 -46.96875 C 31.945312 -46.96875 29.875 -46.484375 27.96875 -45.515625 C 26.0625 -44.546875 24.4375 -43.21875 23.09375 -41.53125 C 21.75 -39.851562 20.703125 -37.929688 19.953125 -35.765625 C 19.203125 -33.597656 18.828125 -31.351562 18.828125 -29.03125 C 18.828125 -26.570312 19.238281 -24.296875 20.0625 -22.203125 C 20.882812 -20.109375 22.003906 -18.273438 23.421875 -16.703125 C 24.847656 -15.128906 26.550781 -13.894531 28.53125 -13 C 30.507812 -12.101562 32.695312 -11.65625 35.09375 -11.65625 Z M 35.09375 -11.65625 "/></g></g></g><g fill="#000000" fill-opacity="1"><g transform="translate(258.032836, 105.16985)"><g><path d="M 22.875 1.125 C 20.03125 1.125 17.375 0.65625 14.90625 -0.28125 C 12.445312 -1.21875 10.316406 -2.523438 8.515625 -4.203125 C 6.722656 -5.890625 5.320312 -7.851562 4.3125 -10.09375 C 3.300781 -12.332031 2.796875 -14.796875 2.796875 -17.484375 C 2.796875 -20.253906 3.410156 -22.816406 4.640625 -25.171875 C 5.878906 -27.523438 7.597656 -29.523438 9.796875 -31.171875 C 12.003906 -32.816406 14.640625 -34.101562 17.703125 -35.03125 C 20.773438 -35.96875 24.140625 -36.4375 27.796875 -36.4375 C 30.421875 -36.4375 32.984375 -36.210938 35.484375 -35.765625 C 37.984375 -35.316406 40.207031 -34.679688 42.15625 -33.859375 L 42.15625 -37.21875 C 42.15625 -41.101562 41.050781 -44.09375 38.84375 -46.1875 C 36.632812 -48.28125 33.363281 -49.328125 29.03125 -49.328125 C 25.894531 -49.328125 22.832031 -48.765625 19.84375 -47.640625 C 16.851562 -46.523438 13.789062 -44.882812 10.65625 -42.71875 L 6.046875 -52.25 C 13.597656 -57.25 21.75 -59.75 30.5 -59.75 C 38.9375 -59.75 45.488281 -57.675781 50.15625 -53.53125 C 54.832031 -49.382812 57.171875 -43.382812 57.171875 -35.53125 L 57.171875 -17.265625 C 57.171875 -15.691406 57.453125 -14.566406 58.015625 -13.890625 C 58.578125 -13.222656 59.492188 -12.851562 60.765625 -12.78125 L 60.765625 0 C 58.222656 0.519531 56.019531 0.78125 54.15625 0.78125 C 51.3125 0.78125 49.125 0.144531 47.59375 -1.125 C 46.0625 -2.394531 45.109375 -4.078125 44.734375 -6.171875 L 44.390625 -9.421875 C 41.773438 -5.984375 38.597656 -3.363281 34.859375 -1.5625 C 31.128906 0.226562 27.132812 1.125 22.875 1.125 Z M 27.125 -9.859375 C 29.664062 -9.859375 32.078125 -10.304688 34.359375 -11.203125 C 36.640625 -12.109375 38.414062 -13.304688 39.6875 -14.796875 C 41.332031 -16.066406 42.15625 -17.488281 42.15625 -19.0625 L 42.15625 -25.78125 C 40.363281 -26.457031 38.421875 -27 36.328125 -27.40625 C 34.234375 -27.820312 32.210938 -28.03125 30.265625 -28.03125 C 26.378906 -28.03125 23.203125 -27.148438 20.734375 -25.390625 C 18.273438 -23.640625 17.046875 -21.414062 17.046875 -18.71875 C 17.046875 -16.175781 18.015625 -14.0625 19.953125 -12.375 C 21.898438 -10.695312 24.289062 -9.859375 27.125 -9.859375 Z M 27.125 -9.859375 "/></g></g></g><g fill="#000000" fill-opacity="1"><g transform="translate(322.365838, 105.16985)"><g><path d="M 46.96875 0 L 29.9375 -25.453125 L 21.859375 -17.484375 L 21.859375 0 L 6.84375 0 L 6.84375 -81.84375 L 21.859375 -81.84375 L 21.859375 -32.171875 L 45.40625 -58.640625 L 61.4375 -58.640625 L 39.578125 -33.75 L 63 0 Z M 46.96875 0 "/></g></g></g><g fill="#000000" fill-opacity="1"><g transform="translate(384.905597, 105.16985)"><g/></g></g><g fill="#000000" fill-opacity="1"><g transform="translate(411.804429, 105.16985)"><g><path d="M 75.21875 -79.59375 L 75.21875 0 L 59.859375 0 L 59.859375 -33.96875 L 23.765625 -33.96875 L 23.765625 0 L 8.296875 0 L 8.296875 -79.59375 L 23.765625 -79.59375 L 23.765625 -47.421875 L 59.859375 -47.421875 L 59.859375 -79.59375 Z M 75.21875 -79.59375 "/></g></g></g><g fill="#000000" fill-opacity="1"><g transform="translate(495.302849, 105.16985)"><g><path d="M 24.78125 1.125 C 18.726562 1.125 14.128906 -0.816406 10.984375 -4.703125 C 7.847656 -8.585938 6.28125 -14.34375 6.28125 -21.96875 L 6.28125 -58.75 L 21.296875 -58.75 L 21.296875 -25.21875 C 21.296875 -16.175781 24.546875 -11.65625 31.046875 -11.65625 C 33.960938 -11.65625 36.785156 -12.53125 39.515625 -14.28125 C 42.242188 -16.039062 44.46875 -18.71875 46.1875 -22.3125 L 46.1875 -58.75 L 61.21875 -58.75 L 61.21875 -17.265625 C 61.21875 -15.691406 61.492188 -14.566406 62.046875 -13.890625 C 62.609375 -13.222656 63.523438 -12.851562 64.796875 -12.78125 L 64.796875 0 C 63.304688 0.300781 62.054688 0.488281 61.046875 0.5625 C 60.035156 0.632812 59.117188 0.671875 58.296875 0.671875 C 55.609375 0.671875 53.421875 0.0546875 51.734375 -1.171875 C 50.054688 -2.410156 49.066406 -4.113281 48.765625 -6.28125 L 48.4375 -10.984375 C 45.8125 -6.953125 42.441406 -3.925781 38.328125 -1.90625 C 34.222656 0.113281 29.707031 1.125 24.78125 1.125 Z M 24.78125 1.125 "/></g></g></g><g fill="#000000" fill-opacity="1"><g transform="translate(564.567293, 105.16985)"><g><path d="M 46.96875 0 L 29.9375 -25.453125 L 21.859375 -17.484375 L 21.859375 0 L 6.84375 0 L 6.84375 -81.84375 L 21.859375 -81.84375 L 21.859375 -32.171875 L 45.40625 -58.640625 L 61.4375 -58.640625 L 39.578125 -33.75 L 63 0 Z M 46.96875 0 "/></g></g></g><g fill="#000000" fill-opacity="1"><g transform="translate(627.107051, 105.16985)"><g><path d="M 24.78125 1.125 C 18.726562 1.125 14.128906 -0.816406 10.984375 -4.703125 C 7.847656 -8.585938 6.28125 -14.34375 6.28125 -21.96875 L 6.28125 -58.75 L 21.296875 -58.75 L 21.296875 -25.21875 C 21.296875 -16.175781 24.546875 -11.65625 31.046875 -11.65625 C 33.960938 -11.65625 36.785156 -12.53125 39.515625 -14.28125 C 42.242188 -16.039062 44.46875 -18.71875 46.1875 -22.3125 L 46.1875 -58.75 L 61.21875 -58.75 L 61.21875 -17.265625 C 61.21875 -15.691406 61.492188 -14.566406 62.046875 -13.890625 C 62.609375 -13.222656 63.523438 -12.851562 64.796875 -12.78125 L 64.796875 0 C 63.304688 0.300781 62.054688 0.488281 61.046875 0.5625 C 60.035156 0.632812 59.117188 0.671875 58.296875 0.671875 C 55.609375 0.671875 53.421875 0.0546875 51.734375 -1.171875 C 50.054688 -2.410156 49.066406 -4.113281 48.765625 -6.28125 L 48.4375 -10.984375 C 45.8125 -6.953125 42.441406 -3.925781 38.328125 -1.90625 C 34.222656 0.113281 29.707031 1.125 24.78125 1.125 Z M 24.78125 1.125 "/></g></g></g><g fill="#000000" fill-opacity="1"><g transform="translate(696.371495, 105.16985)"><g><path d="M 46.96875 0 L 29.9375 -25.453125 L 21.859375 -17.484375 L 21.859375 0 L 6.84375 0 L 6.84375 -81.84375 L 21.859375 -81.84375 L 21.859375 -32.171875 L 45.40625 -58.640625 L 61.4375 -58.640625 L 39.578125 -33.75 L 63 0 Z M 46.96875 0 "/></g></g></g></g></g><g transform="matrix(1, 0, 0, 1, 540, 1090)"><g clip-path="url(#c08d1e1dd1)"><g fill="#000000" fill-opacity="1"><g transform="translate(0.760211, 57.716092)"><g><path d="M 39.296875 -12.40625 C 39.296875 -8.488281 37.867188 -5.441406 35.015625 -3.265625 C 32.171875 -1.085938 28.207031 0 23.125 0 L 5.25 0 L 5.25 -44.015625 L 21.25 -44.015625 C 31.570312 -44.015625 36.734375 -40.453125 36.734375 -33.328125 C 36.734375 -30.734375 36.003906 -28.550781 34.546875 -26.78125 C 33.085938 -25.007812 31.03125 -23.820312 28.375 -23.21875 C 31.863281 -22.800781 34.554688 -21.628906 36.453125 -19.703125 C 38.347656 -17.773438 39.296875 -15.34375 39.296875 -12.40625 Z M 30.75 -32.609375 C 30.75 -34.984375 29.9375 -36.679688 28.3125 -37.703125 C 26.6875 -38.722656 24.332031 -39.234375 21.25 -39.234375 L 11.21875 -39.234375 L 11.21875 -25.3125 L 21.25 -25.3125 C 24.4375 -25.3125 26.816406 -25.910156 28.390625 -27.109375 C 29.960938 -28.304688 30.75 -30.140625 30.75 -32.609375 Z M 33.265625 -12.875 C 33.265625 -18.0625 29.625 -20.65625 22.34375 -20.65625 L 11.21875 -20.65625 L 11.21875 -4.78125 L 22.8125 -4.78125 C 26.457031 -4.78125 29.109375 -5.457031 30.765625 -6.8125 C 32.429688 -8.164062 33.265625 -10.1875 33.265625 -12.875 Z M 33.265625 -12.875 "/></g></g></g><g fill="#000000" fill-opacity="1"><g transform="translate(86.573176, 57.716092)"><g><path d="M 10 -33.796875 L 10 -12.375 C 10 -10.144531 10.21875 -8.414062 10.65625 -7.1875 C 11.09375 -5.957031 11.789062 -5.070312 12.75 -4.53125 C 13.707031 -3.988281 15.113281 -3.71875 16.96875 -3.71875 C 19.675781 -3.71875 21.8125 -4.644531 23.375 -6.5 C 24.9375 -8.351562 25.71875 -10.925781 25.71875 -14.21875 L 25.71875 -33.796875 L 31.34375 -33.796875 L 31.34375 -7.21875 C 31.34375 -3.28125 31.40625 -0.875 31.53125 0 L 26.21875 0 C 26.195312 -0.101562 26.175781 -0.382812 26.15625 -0.84375 C 26.132812 -1.300781 26.109375 -1.828125 26.078125 -2.421875 C 26.046875 -3.015625 26.007812 -4.132812 25.96875 -5.78125 L 25.875 -5.78125 C 24.582031 -3.445312 23.085938 -1.796875 21.390625 -0.828125 C 19.691406 0.140625 17.582031 0.625 15.0625 0.625 C 11.351562 0.625 8.640625 -0.296875 6.921875 -2.140625 C 5.203125 -3.984375 4.34375 -7.03125 4.34375 -11.28125 L 4.34375 -33.796875 Z M 21.125 -38.078125 L 21.125 -43.828125 L 26.21875 -43.828125 L 26.21875 -38.078125 Z M 8.8125 -38.078125 L 8.8125 -43.828125 L 13.96875 -43.828125 L 13.96875 -38.078125 Z M 8.8125 -38.078125 "/></g></g></g><g fill="#000000" fill-opacity="1"><g transform="translate(165.294147, 57.716092)"><g><path d="M 4.4375 0 L 4.4375 -25.9375 C 4.4375 -28.3125 4.375 -30.929688 4.25 -33.796875 L 9.5625 -33.796875 C 9.726562 -29.972656 9.8125 -27.675781 9.8125 -26.90625 L 9.9375 -26.90625 C 10.832031 -29.800781 11.863281 -31.773438 13.03125 -32.828125 C 14.195312 -33.890625 15.84375 -34.421875 17.96875 -34.421875 C 18.71875 -34.421875 19.476562 -34.316406 20.25 -34.109375 L 20.25 -28.96875 C 19.5 -29.175781 18.5 -29.28125 17.25 -29.28125 C 14.914062 -29.28125 13.132812 -28.273438 11.90625 -26.265625 C 10.675781 -24.253906 10.0625 -21.375 10.0625 -17.625 L 10.0625 0 Z M 4.4375 0 "/></g></g></g><g fill="#000000" fill-opacity="1"><g transform="translate(229.737334, 57.716092)"><g><path d="M 32.890625 -16.9375 C 32.890625 -11.019531 31.585938 -6.613281 28.984375 -3.71875 C 26.390625 -0.820312 22.613281 0.625 17.65625 0.625 C 12.71875 0.625 8.988281 -0.878906 6.46875 -3.890625 C 3.945312 -6.898438 2.6875 -11.25 2.6875 -16.9375 C 2.6875 -28.59375 7.738281 -34.421875 17.84375 -34.421875 C 23.007812 -34.421875 26.804688 -33 29.234375 -30.15625 C 31.671875 -27.320312 32.890625 -22.914062 32.890625 -16.9375 Z M 27 -16.9375 C 27 -21.601562 26.304688 -24.992188 24.921875 -27.109375 C 23.535156 -29.222656 21.207031 -30.28125 17.9375 -30.28125 C 14.644531 -30.28125 12.265625 -29.203125 10.796875 -27.046875 C 9.328125 -24.890625 8.59375 -21.519531 8.59375 -16.9375 C 8.59375 -12.476562 9.316406 -9.128906 10.765625 -6.890625 C 12.210938 -4.648438 14.488281 -3.53125 17.59375 -3.53125 C 20.96875 -3.53125 23.378906 -4.613281 24.828125 -6.78125 C 26.273438 -8.945312 27 -12.332031 27 -16.9375 Z M 27 -16.9375 "/></g></g></g><g fill="#000000" fill-opacity="1"><g transform="translate(308.458305, 57.716092)"><g><path d="M 29.6875 -9.34375 C 29.6875 -6.15625 28.484375 -3.695312 26.078125 -1.96875 C 23.671875 -0.238281 20.300781 0.625 15.96875 0.625 C 11.757812 0.625 8.515625 -0.0664062 6.234375 -1.453125 C 3.953125 -2.835938 2.46875 -5 1.78125 -7.9375 L 6.75 -8.90625 C 7.226562 -7.09375 8.21875 -5.765625 9.71875 -4.921875 C 11.21875 -4.078125 13.300781 -3.65625 15.96875 -3.65625 C 18.820312 -3.65625 20.910156 -4.09375 22.234375 -4.96875 C 23.554688 -5.84375 24.21875 -7.15625 24.21875 -8.90625 C 24.21875 -10.238281 23.757812 -11.320312 22.84375 -12.15625 C 21.925781 -12.988281 20.445312 -13.675781 18.40625 -14.21875 L 14.375 -15.28125 C 11.144531 -16.113281 8.847656 -16.929688 7.484375 -17.734375 C 6.117188 -18.535156 5.050781 -19.507812 4.28125 -20.65625 C 3.507812 -21.800781 3.125 -23.207031 3.125 -24.875 C 3.125 -27.957031 4.222656 -30.300781 6.421875 -31.90625 C 8.617188 -33.519531 11.820312 -34.328125 16.03125 -34.328125 C 19.757812 -34.328125 22.722656 -33.671875 24.921875 -32.359375 C 27.117188 -31.054688 28.507812 -28.957031 29.09375 -26.0625 L 24.03125 -25.4375 C 23.71875 -26.9375 22.878906 -28.085938 21.515625 -28.890625 C 20.148438 -29.691406 18.320312 -30.09375 16.03125 -30.09375 C 13.488281 -30.09375 11.613281 -29.707031 10.40625 -28.9375 C 9.195312 -28.164062 8.59375 -27 8.59375 -25.4375 C 8.59375 -24.476562 8.84375 -23.6875 9.34375 -23.0625 C 9.84375 -22.4375 10.582031 -21.90625 11.5625 -21.46875 C 12.539062 -21.03125 14.601562 -20.425781 17.75 -19.65625 C 20.726562 -18.90625 22.875 -18.210938 24.1875 -17.578125 C 25.5 -16.941406 26.535156 -16.238281 27.296875 -15.46875 C 28.054688 -14.695312 28.644531 -13.804688 29.0625 -12.796875 C 29.476562 -11.785156 29.6875 -10.632812 29.6875 -9.34375 Z M 29.6875 -9.34375 "/></g></g></g><g fill="#000000" fill-opacity="1"><g transform="translate(383.58638, 57.716092)"><g><path d="M 9.8125 -33.796875 L 9.8125 -12.375 C 9.8125 -10.144531 10.03125 -8.414062 10.46875 -7.1875 C 10.90625 -5.957031 11.601562 -5.070312 12.5625 -4.53125 C 13.519531 -3.988281 14.925781 -3.71875 16.78125 -3.71875 C 19.488281 -3.71875 21.625 -4.644531 23.1875 -6.5 C 24.75 -8.351562 25.53125 -10.925781 25.53125 -14.21875 L 25.53125 -33.796875 L 31.15625 -33.796875 L 31.15625 -7.21875 C 31.15625 -3.28125 31.21875 -0.875 31.34375 0 L 26.03125 0 C 26.007812 -0.101562 25.988281 -0.382812 25.96875 -0.84375 C 25.945312 -1.300781 25.921875 -1.828125 25.890625 -2.421875 C 25.859375 -3.015625 25.820312 -4.132812 25.78125 -5.78125 L 25.6875 -5.78125 C 24.394531 -3.445312 22.898438 -1.796875 21.203125 -0.828125 C 19.503906 0.140625 17.394531 0.625 14.875 0.625 C 11.164062 0.625 8.453125 -0.296875 6.734375 -2.140625 C 5.015625 -3.984375 4.15625 -7.03125 4.15625 -11.28125 L 4.15625 -33.796875 Z M 9.8125 -33.796875 "/></g></g></g></g></g></svg>