<svg xmlns="http://www.w3.org/2000/svg" viewBox="0 0 720 260" role="img" aria-labelledby="title desc">
  <title id="title">KARDAK Hukuk &amp; Danışmanlık</title>
  <desc id="desc">KARDAK Hukuk &amp; Danışmanlık marka logosu</desc>
  <rect width="720" height="260" rx="72" fill="#fffdf8"/>
  <rect x="14" y="14" width="692" height="232" rx="62" fill="none" stroke="#e8d7b5" stroke-width="2"/>
  <g transform="translate(62 48)">
    <circle cx="82" cy="82" r="72" fill="#f6f1e7" stroke="#e8d7b5" stroke-width="2"/>
    <g fill="none" stroke="#bd914d" stroke-linecap="round" stroke-linejoin="round">
      <path d="M82 37l6 6-6 6-6-6z" fill="#bd914d" stroke="none"/>
      <path d="M82 52v56" stroke-width="3"/>
      <path d="M60 109h44" stroke-width="3"/>
      <path d="M43 62h78" stroke-width="2.8"/>
      <path d="M43 62 31 90M43 62l12 28" stroke-width="2.5"/>
      <path d="M27 92c3.5 7 28.5 7 32 0" stroke-width="2.5"/>
      <path d="M121 62 109 90M121 62l12 28" stroke-width="2.5"/>
      <path d="M105 92c3.5 7 28.5 7 32 0" stroke-width="2.5"/>
      <path d="M39 139c11-5 21 5 32 0s21-5 32 0 21 5 32 0" stroke-width="2.5" opacity=".55"/>
    </g>
  </g>
  <g fill="#bd914d">
    <text x="255" y="113" font-family="Georgia, 'Times New Roman', serif" font-size="58" letter-spacing="16" font-weight="600">KARDAK</text>
    <text x="260" y="155" font-family="Arial, Helvetica, sans-serif" font-size="18" letter-spacing="10" font-weight="700">HUKUK &amp; DANIŞMANLIK</text>
  </g>
</svg>
