<svg xmlns="http://www.w3.org/2000/svg" viewBox="0 0 120 120">
  <rect width="120" height="120" rx="30" fill="#fffdf8"/>
  <circle cx="60" cy="60" r="49" fill="#f6f1e7" stroke="#e8d7b5" stroke-width="2"/>
  <g fill="none" stroke="#bd914d" stroke-linecap="round" stroke-linejoin="round">
    <path d="M60 24l5 5-5 5-5-5z" fill="#bd914d" stroke="none"/>
    <path d="M60 35v43" stroke-width="2.6"/>
    <path d="M43 79h34" stroke-width="2.6"/>
    <path d="M31 42h58" stroke-width="2.4"/>
    <path d="M31 42 22 63M31 42l9 21" stroke-width="2.2"/>
    <path d="M19 64c2.5 5.5 21.5 5.5 24 0" stroke-width="2.2"/>
    <path d="M89 42 80 63M89 42l9 21" stroke-width="2.2"/>
    <path d="M77 64c2.5 5.5 21.5 5.5 24 0" stroke-width="2.2"/>
    <path d="M28 91c8-4 16 4 24 0s16-4 24 0 16 4 24 0" stroke-width="2.2" opacity=".55"/>
  </g>
</svg>
